<svg xmlns="http://www.w3.org/2000/svg" width="50" height="50" viewBox="0 0 50 50"><defs><style>.a,.c{fill:none;}.a{stroke:#000;}.b{stroke:none;}</style></defs><g transform="translate(-1521 -53)"><g transform="translate(1533 44.666)"><g transform="translate(0 21.334)"><g transform="translate(0 0)"><path d="M25.924,24.805a.564.564,0,0,0-.434-.217H4.881l-.542-2.82c0-.217-.325-.434-.542-.434H.542a.542.542,0,0,0,0,1.085h2.82l2.6,13.233a3.822,3.822,0,0,0,3.688,3.037H22.128a.542.542,0,1,0,0-1.085H9.762a2.5,2.5,0,0,1-2.169-1.193L23.43,34.242a.467.467,0,0,0,.434-.434l2.169-8.678A.536.536,0,0,0,25.924,24.805Zm-3.037,8.461L7.051,35.327,5.1,25.564H24.731Z" transform="translate(0 -21.334)"/></g></g><g transform="translate(6.508 39.774)"><g transform="translate(0 0)"><path d="M130.712,384a2.712,2.712,0,1,0,2.712,2.712A2.685,2.685,0,0,0,130.712,384Zm0,4.339a1.627,1.627,0,1,1,1.627-1.627A1.668,1.668,0,0,1,130.712,388.339Z" transform="translate(-128 -384)"/></g></g><g transform="translate(17.355 39.774)"><g transform="translate(0 0)"><path d="M344.046,384a2.712,2.712,0,1,0,2.712,2.712A2.685,2.685,0,0,0,344.046,384Zm0,4.339a1.627,1.627,0,1,1,1.627-1.627A1.668,1.668,0,0,1,344.046,388.339Z" transform="translate(-341.334 -384)"/></g></g></g><g class="a" transform="translate(1521 53)"><circle class="b" cx="25" cy="25" r="25"/><circle class="c" cx="25" cy="25" r="24.5"/></g></g></svg>