<svg xmlns="http://www.w3.org/2000/svg" width="46.209" height="46.211" viewBox="0 0 46.209 46.211"><defs><style>.a{fill:#bfbfbf;stroke:#bfbfbf;stroke-width:0.2px;}</style></defs><g transform="translate(-4.457 -4.457)"><path class="a" d="M42.406,91.615a4.266,4.266,0,1,0,5.069,3.271,4.266,4.266,0,0,0-5.069-3.271Zm1.513,7.016a2.912,2.912,0,1,1,2.232-3.461A2.912,2.912,0,0,1,43.919,98.631Z" transform="translate(-21.14 -53.316)"/><path class="a" d="M50.539,36.35l-.578-2.679a.677.677,0,0,0-.8-.519l-2.551.55L42.044,12.544a.677.677,0,0,0-.8-.519L27.672,14.95,20.08,16.588,17.6,5.091a.677.677,0,0,0-.662-.534H5.234a.677.677,0,0,0-.677.677V7.975a.677.677,0,0,0,.677.677H14.18l5.627,26.092a8.081,8.081,0,1,0,10.369,6.691l19.844-4.28a.677.677,0,0,0,.519-.8ZM23.965,34.6,21.559,23.45l6.93-1.495,1.017,4.711a.676.676,0,0,0,.533.522.667.667,0,0,0,.129.012.677.677,0,0,0,.561-.3L32.55,24.21,35.1,25.937a.677.677,0,0,0,1.042-.7l-1.016-4.711,6.93-1.495,3.226,14.959L28.6,37.586A8.125,8.125,0,0,0,23.965,34.6Zm8.644-19.327,1.052,4.875.8,3.722-1.715-1.161a.677.677,0,0,0-.941.181L30.5,24.829l-1.877-8.7Zm9.163,2.434L34.841,19.2l-.909-4.213,6.93-1.495ZM27.3,16.417l.909,4.214-6.93,1.5-.909-4.215ZM14.726,7.3H5.911V5.911H16.392L18.9,17.535,22.536,34.4a8.038,8.038,0,0,0-1.407.055L15.388,7.832a.677.677,0,0,0-.662-.534Zm8.86,41.751a6.732,6.732,0,1,1,5.158-8,6.732,6.732,0,0,1-5.158,8Zm6.307-8.938a8.025,8.025,0,0,0-.53-1.3l19.419-4.188.293,1.354Z"/></g></svg>