<svg xmlns="http://www.w3.org/2000/svg" width="39.423" height="53.218" viewBox="0 0 39.423 53.218"><defs><style>.a{fill:#fff;}.a,.b{stroke:#bfbfbf;stroke-width:2px;}.b,.d{fill:none;}.b{stroke-linecap:round;}.c{stroke:none;}</style></defs><g transform="translate(-1725.959 -901.579)"><g class="a" transform="translate(1738 927.797)"><rect class="c" width="16" height="27" rx="8"/><rect class="d" x="1" y="1" width="14" height="25" rx="7"/></g><path class="a" d="M15.461,24.563a17.47,17.47,0,0,1-3.084-4.539A27.622,27.622,0,0,1,9.5,9.707C.338,7.816,0,1.451,0,1.451c7.322-2.112,11.332-.094,12.748.9A9.482,9.482,0,0,1,24.964,2.11C26.64,1.074,30.577-.5,37.342,1.451c0,0-.322,6.056-8.842,8.108a27.306,27.306,0,0,1-2.877,10.465,17.47,17.47,0,0,1-3.084,4.539A5.147,5.147,0,0,1,19,26.351,5.15,5.15,0,0,1,15.461,24.563Z" transform="translate(1727 916.842)"/><g transform="translate(1731.388 902.797)"><path class="b" d="M1678.388,904.8l6.418,8.3,6.621,3.741" transform="translate(-1678.388 -902.797)"/><path class="b" d="M1687.454,904.8l-2.649,10.285" transform="translate(-1678.388 -904.797)"/></g><g transform="translate(1747.388 902.797)"><path class="b" d="M1691.427,904.8l-6.418,8.3-6.621,3.741" transform="translate(-1678.388 -902.797)"/><path class="b" d="M1684.805,904.8l2.649,10.285" transform="translate(-1680.833 -904.797)"/></g></g></svg>