<svg xmlns="http://www.w3.org/2000/svg" width="64" height="45" viewBox="0 0 64 45"><defs><style>.a{fill:#bfbfbf;}</style></defs><g transform="translate(-4.75 -22.457)"><path class="a" d="M60.76,25.067c-9.686-6.063-26.726-.53-38.384,6.057C8.408,38.214,5.275,45.041,4.835,49.048a.954.954,0,0,0-.085.383v9.205c0,5.193,3.835,8.82,9.329,8.82a14.734,14.734,0,0,0,7.783-1.834,23.792,23.792,0,0,1,6.072-2.184c2.993-.662,6.531-.116,10.279.464,3.943.61,8.021,1.24,11.863.506,11.3-2.166,18.263-8.263,18.658-16.326a.932.932,0,0,0,.011-.146v-8.9c0-.018,0-.034,0-.051C68.943,33.631,65.963,28.325,60.76,25.067ZM23.251,32.806l.038-.02c7.9-4.468,18.323-8.471,26.934-8.471a17.815,17.815,0,0,1,9.537,2.36c5.173,3.238,7.887,8.7,6.914,13.92-1.2,6.425-7.377,11.161-16.952,13-3.524.675-7.437.068-11.223-.517-3.927-.607-7.635-1.18-10.975-.44a25.394,25.394,0,0,0-6.5,2.335,12.877,12.877,0,0,1-6.947,1.638c-3.626,0-6.536-2.039-7.261-5.073C5.749,47.05,9.507,39.776,23.251,32.806Zm43.6,15.09c-.3,7.176-6.706,12.651-17.132,14.65-3.521.674-7.435.068-11.221-.518-3.928-.607-7.638-1.181-10.975-.44a25.418,25.418,0,0,0-6.5,2.334,12.869,12.869,0,0,1-6.948,1.639c-4.449,0-7.438-2.783-7.438-6.925V55.272a9.579,9.579,0,0,0,7.438,3.23,14.733,14.733,0,0,0,7.782-1.833,23.782,23.782,0,0,1,6.073-2.186c2.993-.664,6.532-.116,10.279.463,3.943.609,8.021,1.24,11.863.5,8.076-1.545,13.937-5.09,16.78-9.993v2.376c0,.021,0,.043,0,.063Z" transform="translate(0 0)"/><path class="a" d="M16.825,58.418A11.474,11.474,0,0,0,23.164,56.9a26.6,26.6,0,0,1,6.794-2.476,17.012,17.012,0,0,1,3.774-.384,50.76,50.76,0,0,1,7.676.815,50.467,50.467,0,0,0,7.586.808,16.407,16.407,0,0,0,3.153-.275C61.13,53.638,66.907,49.235,68,43.3c.869-4.733-1.6-9.72-6.29-12.7a16.153,16.153,0,0,0-8.749-2.155c-7.316,0-17.14,3.134-26.258,8.374l-.108.06C13.57,43.586,9.943,50.29,10.889,54.327c.573,2.447,2.96,4.091,5.936,4.091ZM27.458,38.581l.147-.08c8.868-5.095,18.346-8.137,25.352-8.137a14.335,14.335,0,0,1,7.749,1.864c4.027,2.561,6.16,6.767,5.435,10.718C65.2,48.058,59.973,51.9,51.792,53.493a14.6,14.6,0,0,1-2.8.243,49.138,49.138,0,0,1-7.3-.787,52.12,52.12,0,0,0-7.96-.837,18.891,18.891,0,0,0-4.183.43,28.232,28.232,0,0,0-7.217,2.629,9.766,9.766,0,0,1-5.5,1.322c-2.086,0-3.734-1.051-4.1-2.615-.6-2.551,1.823-8.645,14.731-15.3Z" transform="translate(-2.704 -2.701)"/><path class="a" d="M87.088,43.71c2.246,0,4-1.281,4-2.917s-1.757-2.918-4-2.918-4,1.281-4,2.918S84.842,43.71,87.088,43.71Zm0-3.913c1.252,0,2.082.6,2.082,1s-.831,1-2.082,1-2.082-.6-2.082-1S85.838,39.8,87.088,39.8Z" transform="translate(-36.118 -7.087)"/></g></svg>