<svg xmlns="http://www.w3.org/2000/svg" width="34.158" height="45.9" viewBox="0 0 34.158 45.9"><defs><style>.a{fill:#bfbfbf;stroke:#bfbfbf;stroke-width:0.4px;}</style></defs><g transform="translate(0.2 0.2)"><path class="a" d="M38.679,29.635l-9.865-2.077V25.335a7.362,7.362,0,0,0,4.255-5.254h2.35a2.2,2.2,0,0,0,2.2-2.2V14.944a2.19,2.19,0,0,0-.734-1.629V12.008a11.008,11.008,0,0,0-22.016,0v1.306a2.189,2.189,0,0,0-.734,1.629v2.935a2.2,2.2,0,0,0,2.2,2.2v1.468a2.2,2.2,0,0,0,2.2,2.2h2.107a7.366,7.366,0,0,0,2.3,1.584v2.223l-9.865,2.077A5.161,5.161,0,0,0,9,34.661v11.1a.733.733,0,0,0,.734.734h32.29a.733.733,0,0,0,.734-.734v-11.1a5.16,5.16,0,0,0-4.079-5.026ZM25.6,31.823h.561l.734,1.468H24.865Zm1.014-1.772-.3.3h-.86l-.3-.3v-.636l.5.167a.724.724,0,0,0,.464,0l.5-.167ZM28.815,7.6H22.944a4.409,4.409,0,0,0-4.38,3.953,7.329,7.329,0,0,1,14.632,0A4.409,4.409,0,0,0,28.815,7.6Zm2.931,4.239,0-1.916-1.49-.855-6.1-.4-4.211.889.057,5.723c0-.377,0-1.856,0-3.273a2.938,2.938,0,0,1,2.935-2.935h5.871a2.939,2.939,0,0,1,2.931,2.771Zm4.408,6.035a.735.735,0,0,1-.734.734h-2.2v-4.4h2.2a.735.735,0,0,1,.734.734ZM16.339,12.008a9.54,9.54,0,0,1,19.081,0v.734h-.734v-.734a8.806,8.806,0,0,0-17.613,0v.734h-.734ZM15.6,17.879V14.944a.735.735,0,0,1,.734-.734h2.2v4.4h-2.2A.735.735,0,0,1,15.6,17.879Zm2.935,4.4a.735.735,0,0,1-.734-.734V20.081h.882a7.291,7.291,0,0,0,.845,2.2Zm2.763,0a5.839,5.839,0,0,1-1.3-3.669V15.281l-.248-3.9.465-1.559,1.6-.834L25.68,8.4l5.428,1.039.566,1.053.077,1.355c.1.5-.116,3.779.055,3.437l-.055-.164v3.5a5.866,5.866,0,0,1-8.707,5.137h2.836V22.282Zm4.576,3.669a7.326,7.326,0,0,0,1.468-.148v1.821l-1.468.489-1.468-.489V25.8A7.326,7.326,0,0,0,25.879,25.952Zm-15.411,8.71a3.687,3.687,0,0,1,2.913-3.591l10.254-2.158.043.015v1.428a.731.731,0,0,0,.215.519l.36.36L23.224,33.29H14.137a2.2,2.2,0,0,0-2.2,2.2v9.54H10.468ZM13.4,45.032v-9.54a.734.734,0,0,1,.734-.734H37.621a.734.734,0,0,1,.734.734v9.54Zm27.887,0H39.823v-9.54a2.2,2.2,0,0,0-2.2-2.2H28.534l-1.028-2.057.36-.36a.731.731,0,0,0,.215-.519V28.927l.043-.014,10.254,2.158a3.686,3.686,0,0,1,2.913,3.591Z" transform="translate(-9 -1)"/></g></svg>