<svg xmlns="http://www.w3.org/2000/svg" width="27" height="24" viewBox="0 0 27 24"><defs><style>.a{fill:#19613d;}</style></defs><path class="a" d="M21.736,34a1.074,1.074,0,0,1-.6-.183l-6.789-4.576-3.641,2.6a1.071,1.071,0,0,1-1.658-.591L7.22,24.365.687,21.883A1.06,1.06,0,0,1,.673,19.9l24.84-9.822A1.075,1.075,0,0,1,25.865,10a1.122,1.122,0,0,1,.129,0,1.069,1.069,0,0,1,.685.3c.02.019.039.039.056.059a1.055,1.055,0,0,1,.261.622,1.071,1.071,0,0,1,0,.17,1.026,1.026,0,0,1-.018.121L22.785,33.134a1.069,1.069,0,0,1-1.05.863Zm-6.793-6.924,6.047,4.076,3.262-17.011L12.47,25.406l2.445,1.648Zm-5.034-.906.81,3.049,1.744-1.247-2.284-1.54A1.063,1.063,0,0,1,9.909,26.167Zm-5.9-5.3,4.486,1.7a1.065,1.065,0,0,1,.652.721l.569,2.142a1.06,1.06,0,0,1,.322-.655L21.265,14.048Z" transform="translate(0 -9.997)"/></svg>